<svg xmlns="http://www.w3.org/2000/svg" width="32" height="32"><path d="M25.3 8.4C25.8 5.9 25.5 4 24.3 3.3 24 3 23.5 2.9 23 2.9 20.2 3 15.6 6.9 11.9 12.6 7.6 19.3 6 26.1 8.5 27.7c1.2 0.8 3 0.2 5.1-1.3" style="fill:none;stroke:#fff"/><path d="m27.5 19.4c2.1-0.8 3.4-1.9 3.4-3.2 0.2-2.9-6.2-5.6-14.3-6.1-0.8 0-1.5-0.1-2.2-0.1-7 0-12.5 1.9-12.6 4.6-0.1 1.3 1.1 2.5 3.1 3.5" style="fill:none;stroke:#fff"/><path d="M14.4 4C13 2.8 11.7 2.2 10.6 2.3c-0.3 0-0.5 0.1-0.8 0.2-2.6 1.3-1.8 8.2 1.9 15.4 3.7 7.2 8.7 11.9 11.4 10.6 2.5-1.3 1.8-7.7-1.5-14.6" style="fill:none;stroke:#fff"/><path d="m18.2 15.7a1.7 1.7 0 0 1-3.5 0 1.7 1.7 0 1 1 3.5 0z" fill="#fff"/></svg>